<?xml version="1.0" encoding="utf-8"?>
<!-- Generator: Adobe Illustrator 16.0.4, SVG Export Plug-In . SVG Version: 6.00 Build 0)  -->
<!DOCTYPE svg PUBLIC "-//W3C//DTD SVG 1.1//EN" "http://www.w3.org/Graphics/SVG/1.1/DTD/svg11.dtd">
<svg version="1.1" id="Layer_1" xmlns="http://www.w3.org/2000/svg" xmlns:xlink="http://www.w3.org/1999/xlink" x="0px" y="0px"
	 width="334.16px" height="103.118px" viewBox="0 0 334.16 103.118" enable-background="new 0 0 334.16 103.118"
	 xml:space="preserve">
<g>
	<polygon fill="#FFFFFF" points="101.089,101.089 73.872,101.089 71.928,103.034 56.375,103.034 54.431,101.089 1.944,101.089 
		1.944,1.944 13.606,1.944 15.552,0 31.103,0 33.046,1.944 101.089,1.944 	"/>
	<g>
		<path fill="#ED263D" d="M55.083,47.087l-23.346,8.497c-0.38,0.139-0.634,0.5-0.634,0.905v15.236c0,0.669,0.665,1.134,1.293,0.905
			l21.428-7.799c1.532-0.558,2.552-2.014,2.552-3.645V47.993C56.376,47.324,55.712,46.858,55.083,47.087z"/>
		<path fill="#ED263D" d="M56.376,78.385L27.283,88.974c-5.701,2.075-11.731-2.146-11.731-8.214V0.084H0v103.033h56.376V78.385z"/>
		<path fill="#ED263D" d="M31.104,0.084v35.709c0,2.692,2.676,4.566,5.206,3.645l23.888-8.694c5.701-2.075,11.73,2.146,11.73,8.214
			v64.159h31.104V0.084H31.104z"/>
	</g>
</g>
<g>
	<path fill="#FFFFFF" d="M144.563,46.919c0.862-0.184,3.079-0.492,4.864-0.492V13.423c-1.786,0-4.002-0.308-4.864-0.493V9.421
		h16.379c7.635,0,13.546,2.709,13.546,10.098c0,4.926-2.895,8.127-7.389,9.298v0.123c5.049,0.863,9.174,4.187,9.174,9.914
		c0,8.252-6.342,11.576-15.517,11.576h-16.194V46.919z M154.908,27.093h5.418c5.973,0,8.558-2.401,8.558-6.958
		c0-4.495-2.956-6.527-8.435-6.527h-5.542V27.093z M154.908,46.181h5.665c6.834,0,9.975-2.339,9.975-7.389
		c0-4.802-2.833-7.697-9.667-7.697h-5.973V46.181z"/>
	<path fill="#FFFFFF" d="M180.345,36.021c0-9.79,5.787-15.947,14.039-15.947c7.265,0,11.514,4.988,11.514,12.808
		c0,0.739-0.062,2.216-0.123,2.895h-19.828c0.062,6.957,3.386,11.206,9.606,11.206c3.326,0,6.219-1.54,7.573-2.525l1.909,3.694
		c-1.538,1.047-4.926,3.018-10.405,3.018C185.393,51.168,180.345,44.827,180.345,36.021z M200.479,32.02
		c0-4.373-1.724-8.005-6.588-8.005c-4.372,0-7.266,3.141-7.759,8.005H200.479z"/>
	<path fill="#FFFFFF" d="M208.857,46.919c0.863-0.184,3.018-0.492,4.804-0.492V24.63c-1.971-0.185-3.879-0.246-4.804-0.246v-3.448
		c1.664-0.246,5.851-0.493,10.16-0.493l-0.246,5.418h0.124c1.107-2.587,3.816-5.789,7.757-5.789c1.909,0,2.895,0.431,3.326,0.617
		l-1.293,4.864c-0.369-0.184-1.17-0.555-2.71-0.555c-4.002,0-6.649,4.373-7.143,5.358v16.07c1.786,0,4.558,0.308,5.419,0.492v3.51
		h-15.395V46.919z"/>
	<path fill="#FFFFFF" d="M229.305,46.919c0.863-0.184,2.955-0.492,4.741-0.492V10.16c-1.97-0.185-3.878-0.246-4.802-0.246v-3.51
		c1.723-0.185,5.911-0.492,10.282-0.492l-0.308,4.864v35.651c1.724,0,3.325,0.308,4.187,0.492v3.51h-14.101V46.919z M238.837,35.621
		l10.664-10.868c-1.478-0.123-3.016-0.308-3.633-0.493v-3.448h14.039v3.448c-0.801,0.185-2.771,0.432-4.556,0.493l-16.301,16.055
		L238.837,35.621z"/>
	<path fill="#FFFFFF" d="M264.203,46.919c0.862-0.184,2.955-0.492,4.741-0.492V10.16c-1.971-0.185-3.879-0.246-4.804-0.246v-3.51
		c1.726-0.185,5.911-0.492,10.284-0.492l-0.309,4.864v35.651c1.786,0,3.879,0.308,4.742,0.492v3.51h-14.655V46.919z"/>
	<path fill="#FFFFFF" d="M279.847,36.021c0-9.79,5.787-15.947,14.039-15.947c7.265,0,11.514,4.988,11.514,12.808
		c0,0.739-0.062,2.216-0.123,2.895h-19.827c0.062,6.957,3.386,11.206,9.605,11.206c3.326,0,6.22-1.54,7.573-2.525l1.908,3.694
		c-1.538,1.047-4.926,3.018-10.404,3.018C284.895,51.168,279.847,44.827,279.847,36.021z M299.98,32.02
		c0-4.373-1.724-8.005-6.588-8.005c-4.371,0-7.267,3.141-7.759,8.005H299.98z"/>
	<path fill="#FFFFFF" d="M308.607,36.021c0-9.79,5.787-15.947,14.039-15.947c7.265,0,11.514,4.988,11.514,12.808
		c0,0.739-0.062,2.216-0.123,2.895H314.21c0.062,6.957,3.386,11.206,9.605,11.206c3.326,0,6.22-1.54,7.573-2.525l1.908,3.694
		c-1.538,1.047-4.926,3.018-10.404,3.018C313.655,51.168,308.607,44.827,308.607,36.021z M328.741,32.02
		c0-4.373-1.724-8.005-6.588-8.005c-4.371,0-7.267,3.141-7.759,8.005H328.741z"/>
	<path fill="#FFFFFF" d="M246.764,32.357l5.474,8.575c1.215,1.885,2.492,3.647,3.587,4.621c1.337,1.215,2.701,1.144,4.101,1.144
		c0.363,0,0.973,0,1.52-0.121l0.276,3.731c-0.79,0.183-2.128,0.365-3.04,0.365c-2.919,0-4.812-0.707-6.332-2.044
		c-1.094-0.973-2.371-2.736-3.405-4.378l-5.715-8.999L246.764,32.357z"/>
	<path fill="#FFFFFF" d="M261.721,50.308"/>
</g>
<g>
	<path fill="#FFFFFF" d="M155.169,66.216h2.448l10.728,25.488h-2.664l-2.772-6.768h-13.5l-2.88,6.768h-2.484L155.169,66.216z
		 M156.285,68.808l-5.94,13.969h11.7L156.285,68.808z"/>
	<path fill="#FFFFFF" d="M171.405,79.752c0-0.312-0.012-0.689-0.036-1.134c-0.024-0.444-0.042-0.894-0.054-1.35
		c-0.012-0.456-0.03-0.883-0.054-1.278c-0.024-0.396-0.036-0.702-0.036-0.918h2.16c0.024,0.624,0.042,1.224,0.054,1.8
		c0.012,0.576,0.042,0.948,0.09,1.116c0.552-0.984,1.26-1.788,2.124-2.412c0.864-0.624,1.92-0.937,3.168-0.937
		c0.216,0,0.426,0.019,0.63,0.055c0.204,0.036,0.414,0.078,0.63,0.126l-0.252,2.124c-0.288-0.096-0.564-0.145-0.828-0.145
		c-0.936,0-1.746,0.15-2.43,0.45c-0.684,0.301-1.248,0.715-1.692,1.242c-0.444,0.528-0.774,1.146-0.99,1.854
		c-0.216,0.709-0.324,1.471-0.324,2.286v9.072h-2.16V79.752z"/>
	<path fill="#FFFFFF" d="M196.676,89.256c-0.814,0.984-1.74,1.71-2.771,2.179c-1.031,0.468-2.148,0.701-3.348,0.701
		c-1.272,0-2.448-0.216-3.528-0.647c-1.08-0.433-2.004-1.038-2.772-1.818c-0.769-0.779-1.368-1.704-1.8-2.771
		c-0.432-1.068-0.648-2.238-0.648-3.511c0-1.271,0.216-2.441,0.648-3.51c0.432-1.067,1.032-1.991,1.8-2.771
		c0.768-0.78,1.692-1.387,2.772-1.818s2.255-0.648,3.528-0.648c1.224,0,2.357,0.253,3.402,0.757
		c1.043,0.504,1.973,1.212,2.789,2.124l-1.727,1.296c-0.625-0.696-1.309-1.242-2.053-1.639c-0.744-0.396-1.548-0.594-2.412-0.594
		c-1.008,0-1.92,0.18-2.736,0.54c-0.816,0.36-1.512,0.846-2.088,1.458c-0.576,0.612-1.014,1.332-1.314,2.16
		c-0.301,0.828-0.45,1.71-0.45,2.646c0,0.937,0.149,1.818,0.45,2.646c0.3,0.828,0.738,1.548,1.314,2.16
		c0.576,0.611,1.271,1.098,2.088,1.458c0.815,0.359,1.728,0.54,2.736,0.54c0.912,0,1.746-0.21,2.502-0.63s1.41-0.978,1.963-1.675
		L196.676,89.256z"/>
	<path fill="#FFFFFF" d="M200.061,64.489h2.16v13.5h0.072c0.432-0.912,1.151-1.698,2.16-2.358c1.008-0.659,2.184-0.99,3.527-0.99
		c1.296,0,2.352,0.205,3.168,0.612c0.815,0.408,1.458,0.942,1.926,1.603c0.469,0.66,0.792,1.422,0.973,2.285
		c0.18,0.864,0.27,1.753,0.27,2.664v9.9h-2.16v-9.792c0-0.672-0.06-1.326-0.18-1.962s-0.33-1.206-0.63-1.71
		c-0.301-0.504-0.72-0.905-1.26-1.206c-0.54-0.3-1.242-0.45-2.106-0.45c-0.792,0-1.542,0.139-2.25,0.414
		c-0.708,0.276-1.32,0.696-1.836,1.26c-0.517,0.564-0.924,1.272-1.224,2.124c-0.301,0.853-0.45,1.854-0.45,3.006v8.316h-2.16V64.489
		z"/>
	<path fill="#FFFFFF" d="M219.896,68.485c0-0.456,0.155-0.84,0.468-1.152c0.312-0.312,0.696-0.468,1.152-0.468
		c0.455,0,0.84,0.156,1.151,0.468c0.312,0.312,0.469,0.696,0.469,1.152s-0.157,0.84-0.469,1.151
		c-0.312,0.312-0.696,0.469-1.151,0.469c-0.456,0-0.841-0.156-1.152-0.469C220.052,69.325,219.896,68.941,219.896,68.485z
		 M220.437,75.073h2.16v16.632h-2.16V75.073z"/>
	<path fill="#FFFFFF" d="M226.376,75.073h2.448l5.544,14.292l5.399-14.292h2.196l-6.552,16.632h-2.232L226.376,75.073z"/>
	<path fill="#FFFFFF" d="M260.072,88.573c-0.841,1.272-1.879,2.184-3.114,2.735c-1.236,0.553-2.599,0.828-4.086,0.828
		c-1.272,0-2.425-0.216-3.456-0.647c-1.032-0.433-1.921-1.038-2.664-1.818c-0.744-0.779-1.314-1.704-1.71-2.771
		c-0.396-1.068-0.594-2.25-0.594-3.546c0-1.248,0.203-2.4,0.611-3.456c0.408-1.057,0.984-1.975,1.729-2.754
		c0.743-0.78,1.62-1.393,2.628-1.837c1.008-0.443,2.124-0.666,3.348-0.666c1.272,0,2.395,0.223,3.366,0.666
		c0.972,0.444,1.788,1.032,2.448,1.765c0.659,0.732,1.157,1.565,1.494,2.502c0.336,0.936,0.504,1.884,0.504,2.844v1.512h-13.969
		c0,0.457,0.091,1.039,0.271,1.746c0.18,0.708,0.51,1.398,0.99,2.07c0.479,0.672,1.121,1.248,1.926,1.728
		c0.804,0.48,1.842,0.721,3.114,0.721c1.104,0,2.172-0.264,3.204-0.792c1.031-0.528,1.823-1.248,2.376-2.16L260.072,88.573z
		 M258.416,81.985c0-0.744-0.15-1.44-0.45-2.088c-0.3-0.648-0.708-1.218-1.224-1.71c-0.517-0.492-1.129-0.883-1.836-1.171
		c-0.709-0.287-1.458-0.432-2.25-0.432c-1.177,0-2.154,0.24-2.935,0.72c-0.78,0.48-1.398,1.032-1.854,1.656
		c-0.456,0.625-0.78,1.23-0.973,1.818s-0.288,0.99-0.288,1.206H258.416z"/>
	<path fill="#FFFFFF" d="M265.436,87.457c0.456,0.889,1.128,1.566,2.016,2.034s1.824,0.702,2.809,0.702
		c0.455,0,0.911-0.072,1.368-0.216c0.455-0.145,0.863-0.348,1.224-0.612c0.36-0.264,0.653-0.582,0.882-0.954
		c0.228-0.372,0.342-0.798,0.342-1.278c0-0.768-0.246-1.344-0.737-1.728c-0.492-0.384-1.099-0.685-1.818-0.9
		s-1.512-0.401-2.376-0.558s-1.656-0.396-2.376-0.72c-0.72-0.324-1.326-0.774-1.818-1.351s-0.737-1.392-0.737-2.448
		c0-0.815,0.167-1.523,0.504-2.124c0.336-0.6,0.773-1.098,1.313-1.493c0.54-0.396,1.146-0.69,1.818-0.883
		c0.672-0.191,1.355-0.288,2.052-0.288c1.368,0,2.55,0.253,3.546,0.757s1.77,1.296,2.322,2.376l-1.944,1.151
		c-0.408-0.768-0.918-1.35-1.529-1.746c-0.612-0.396-1.41-0.594-2.395-0.594c-0.384,0-0.786,0.061-1.206,0.18
		c-0.42,0.121-0.798,0.288-1.134,0.505c-0.336,0.216-0.618,0.492-0.846,0.827c-0.229,0.337-0.343,0.721-0.343,1.152
		c0,0.744,0.246,1.296,0.738,1.656c0.492,0.359,1.099,0.643,1.818,0.846c0.72,0.204,1.512,0.378,2.376,0.522
		c0.864,0.144,1.656,0.378,2.376,0.701c0.72,0.324,1.325,0.792,1.817,1.404s0.738,1.482,0.738,2.61c0,0.864-0.162,1.614-0.485,2.25
		c-0.324,0.636-0.769,1.17-1.332,1.602c-0.564,0.433-1.206,0.756-1.927,0.973c-0.72,0.216-1.476,0.323-2.268,0.323
		c-1.44,0-2.754-0.275-3.942-0.828c-1.188-0.552-2.105-1.403-2.754-2.556L265.436,87.457z"/>
</g>
<g>
</g>
<g>
</g>
<g>
</g>
<g>
</g>
<g>
</g>
<g>
</g>
</svg>
